<!DOCTYPE svg PUBLIC "-//W3C//DTD SVG 1.1//EN" "http://www.w3.org/Graphics/SVG/1.1/DTD/svg11.dtd">
<!-- Uploaded to: SVG Repo, www.svgrepo.com, Transformed by: SVG Repo Mixer Tools -->
<svg fill="#ffffff" version="1.1" id="Capa_1" xmlns="http://www.w3.org/2000/svg" xmlns:xlink="http://www.w3.org/1999/xlink" width="800px" height="800px" viewBox="0 0 163.537 163.538" xml:space="preserve">
<g id="SVGRepo_bgCarrier" stroke-width="0"/>
<g id="SVGRepo_tracerCarrier" stroke-linecap="round" stroke-linejoin="round"/>
<g id="SVGRepo_iconCarrier"> <g> <g> <path d="M97.03,90.029c-0.815,1.135-1.572,1.685-2.293,1.685c-0.491,0-0.763-0.283-0.852-0.845 c-0.035-0.124-0.035-0.556-0.035-1.407V74.75h-3.624v15.806c0,1.406,0.13,2.37,0.325,2.973c0.367,1.005,1.165,1.484,2.335,1.484 c1.33,0,2.707-0.811,4.144-2.453v2.181h3.629V74.75H97.03V90.029z"/> <path d="M111.146,74.501c-1.33,0-2.56,0.727-3.736,2.163v-8.754h-3.629v26.835h3.629v-1.933c1.206,1.489,2.453,2.205,3.736,2.205 c1.441,0,2.423-0.763,2.901-2.252c0.243-0.846,0.367-2.17,0.367-4.02v-7.968c0-1.892-0.124-3.21-0.367-4.008 C113.574,75.258,112.593,74.501,111.146,74.501z M110.802,89.024c0,1.803-0.537,2.689-1.584,2.689 c-0.603,0-1.193-0.283-1.809-0.887V78.639c0.615-0.591,1.206-0.875,1.809-0.875c1.047,0,1.584,0.916,1.584,2.725V89.024z"/> <path d="M163.225,47.874C158.443,1.527,106.7,2.243,81.769,24.615C56.837,2.243,5.118,1.527,0.312,47.874 c-6.186,59.669,81.456,105.897,81.456,105.897S169.407,107.542,163.225,47.874z M40.121,83.758v10.976h-4.049V83.758 c-0.381-1.939-1.188-4.794-2.494-8.577c-0.854-2.512-1.744-5.036-2.604-7.56h4.273l2.887,10.651l2.772-10.651h4.103L40.121,83.758 z M55.859,88.191c0,2.151-0.37,3.741-1.141,4.746c-1.011,1.39-2.438,2.081-4.271,2.081c-1.823,0-3.245-0.686-4.262-2.081 c-0.774-1.005-1.138-2.595-1.138-4.746v-7.075c0-2.146,0.37-3.729,1.138-4.758c1.017-1.372,2.438-2.063,4.262-2.063 c1.833,0,3.26,0.691,4.271,2.063c0.771,1.029,1.141,2.613,1.141,4.758V88.191z M69.386,94.74h-3.656v-2.204 c-1.46,1.672-2.852,2.482-4.182,2.482c-1.176,0-1.992-0.485-2.355-1.502c-0.201-0.614-0.328-1.584-0.328-3.008V74.537h3.656 v14.872c0,0.856,0,1.306,0.039,1.424c0.089,0.568,0.375,0.857,0.866,0.857c0.729,0,1.498-0.573,2.311-1.714V74.537h3.656V94.74 H69.386z M131.508,95.94c-0.733,3.191-3.346,5.538-6.479,5.893c-7.43,0.834-14.954,0.84-22.443,0.834 c-7.494,0.006-15.007,0-22.452-0.834c-3.13-0.354-5.73-2.695-6.469-5.893c-1.049-4.539-1.049-9.499-1.049-14.168 c0-4.676,0.021-9.629,1.067-14.168c0.727-3.186,3.34-5.539,6.469-5.899c7.433-0.827,14.963-0.833,22.447-0.827 c7.488-0.006,15.007,0,22.437,0.827c3.15,0.36,5.751,2.707,6.479,5.899c1.046,4.54,1.046,9.493,1.046,14.168 C132.56,86.441,132.548,91.401,131.508,95.94z"/> <path d="M50.447,77.587c-1.176,0-1.744,0.934-1.744,2.796v8.505c0,1.868,0.568,2.802,1.744,2.802c1.179,0,1.741-0.934,1.741-2.802 v-8.505C52.188,78.521,51.633,77.587,50.447,77.587z"/> <polygon points="77.084,71.688 81.352,71.688 81.352,94.746 85.374,94.746 85.374,71.688 89.713,71.688 89.713,67.911 77.084,67.911 "/> <path d="M122.694,74.501c-1.844,0-3.292,0.686-4.338,2.057c-0.774,1.005-1.129,2.571-1.129,4.705v6.999 c0,2.127,0.407,3.699,1.17,4.698c1.047,1.372,2.488,2.052,4.38,2.052c1.897,0,3.387-0.716,4.386-2.164 c0.443-0.644,0.728-1.377,0.846-2.169c0.035-0.36,0.082-1.158,0.082-2.341v-0.52h-3.688c0,1.441-0.048,2.258-0.095,2.44 c-0.195,0.97-0.716,1.454-1.614,1.454c-1.241,0-1.844-0.916-1.844-2.777v-3.535h7.234v-4.138c0-2.14-0.36-3.7-1.129-4.705 C125.951,75.187,124.509,74.501,122.694,74.501z M124.462,82.392h-3.611v-1.855c0-1.851,0.603-2.767,1.809-2.767 c1.2,0,1.803,0.916,1.803,2.767V82.392z"/> </g> </g> </g>
</svg>